<svg width="621" height="288" xmlns="http://www.w3.org/2000/svg" xmlns:xlink="http://www.w3.org/1999/xlink" overflow="hidden"><defs><clipPath id="clip0"><rect x="0" y="0" width="621" height="288"/></clipPath><clipPath id="clip1"><rect x="10" y="4" width="605" height="284"/></clipPath><clipPath id="clip2"><rect x="208" y="19" width="373" height="239"/></clipPath><clipPath id="clip3"><rect x="208" y="19" width="373" height="239"/></clipPath><clipPath id="clip4"><rect x="208" y="19" width="373" height="239"/></clipPath><clipPath id="clip5"><rect x="208" y="19" width="373" height="239"/></clipPath><clipPath id="clip6"><rect x="10" y="4" width="605" height="284"/></clipPath><clipPath id="clip7"><rect x="10" y="4" width="605" height="284"/></clipPath><clipPath id="clip8"><rect x="10" y="4" width="605" height="284"/></clipPath><clipPath id="clip9"><rect x="10" y="4" width="605" height="284"/></clipPath><clipPath id="clip10"><rect x="10" y="4" width="605" height="284"/></clipPath><clipPath id="clip11"><rect x="10" y="4" width="605" height="284"/></clipPath><clipPath id="clip12"><rect x="10" y="4" width="605" height="284"/></clipPath><clipPath id="clip13"><rect x="10" y="4" width="605" height="284"/></clipPath><clipPath id="clip14"><rect x="10" y="4" width="605" height="284"/></clipPath><clipPath id="clip15"><rect x="10" y="4" width="605" height="284"/></clipPath><clipPath id="clip16"><rect x="10" y="4" width="605" height="284"/></clipPath><clipPath id="clip17"><rect x="10" y="4" width="605" height="284"/></clipPath><clipPath id="clip18"><rect x="10" y="4" width="605" height="284"/></clipPath><clipPath id="clip19"><rect x="10" y="4" width="605" height="284"/></clipPath><clipPath id="clip20"><rect x="10" y="4" width="605" height="284"/></clipPath><clipPath id="clip21"><rect x="10" y="4" width="605" height="284"/></clipPath><clipPath id="clip22"><rect x="10" y="4" width="605" height="284"/></clipPath><clipPath id="clip23"><rect x="10" y="4" width="605" height="284"/></clipPath><clipPath id="clip24"><rect x="10" y="4" width="605" height="284"/></clipPath><clipPath id="clip25"><rect x="10" y="4" width="605" height="284"/></clipPath><clipPath id="clip26"><rect x="10" y="4" width="605" height="284"/></clipPath><clipPath id="clip27"><rect x="10" y="4" width="605" height="284"/></clipPath><clipPath id="clip28"><rect x="10" y="4" width="605" height="284"/></clipPath><clipPath id="clip29"><rect x="10" y="4" width="605" height="284"/></clipPath><clipPath id="clip30"><rect x="10" y="4" width="605" height="284"/></clipPath><clipPath id="clip31"><rect x="10" y="4" width="605" height="284"/></clipPath><clipPath id="clip32"><rect x="10" y="4" width="605" height="284"/></clipPath><clipPath id="clip33"><rect x="179" y="18" width="33" height="241"/></clipPath><clipPath id="clip34"><rect x="179" y="18" width="33" height="241"/></clipPath><clipPath id="clip35"><rect x="179" y="18" width="33" height="241"/></clipPath><clipPath id="clip36"><rect x="179" y="18" width="33" height="241"/></clipPath><clipPath id="clip37"><rect x="179" y="18" width="33" height="241"/></clipPath><clipPath id="clip38"><rect x="179" y="18" width="33" height="241"/></clipPath><clipPath id="clip39"><rect x="179" y="18" width="33" height="241"/></clipPath><clipPath id="clip40"><rect x="179" y="18" width="33" height="241"/></clipPath></defs><g clip-path="url(#clip0)"><rect x="0" y="0" width="621" height="288.155" fill="#FFFFFF"/><rect x="9.99999" y="4.0021" width="605" height="284.152" fill="#FFFFFF"/><g clip-path="url(#clip1)"><path d="M255.497 19.5104 255.497 256.638M301.496 19.5104 301.496 256.638M348.496 19.5104 348.496 256.638M394.495 19.5104 394.495 256.638M441.495 19.5104 441.495 256.638M487.494 19.5104 487.494 256.638M534.494 19.5104 534.494 256.638M580.5 19.5104 580.5 256.638" stroke="#D9D9D9" stroke-width="0.999463" stroke-linejoin="round" stroke-miterlimit="10" fill="none"/></g><g clip-path="url(#clip2)"><path d="M324.996 254.133 209 254.133 209 230.121 324.996 230.121ZM315.996 224.118 209 224.118 209 200.105 315.996 200.105ZM298.996 194.102 209 194.102 209 171.09 298.996 171.09ZM296.996 165.087 209 165.087 209 141.074 296.996 141.074ZM407.995 135.071 209 135.071 209 111.058 407.995 111.058ZM398.995 105.055 209 105.055 209 81.0425 398.995 81.0425ZM354.996 76.0399 209 76.0399 209 52.0273 354.996 52.0273ZM333.996 46.0241 209 46.0241 209 22.0115 333.996 22.0115Z" fill="#FFFFFF" fill-opacity="0"/></g><g clip-path="url(#clip3)"><path d="M393.495 253.633 325.496 253.633 325.496 230.621 393.495 230.621ZM368.496 224.618 316.496 224.618 316.496 200.605 368.496 200.605ZM355.496 194.602 299.496 194.602 299.496 170.59 355.496 170.59ZM354.496 164.586 297.496 164.586 297.496 140.574 354.496 140.574ZM471.494 134.571 407.495 134.571 407.495 111.559 471.494 111.559ZM443.495 105.555 399.495 105.555 399.495 81.5428 443.495 81.5428ZM396.495 75.5396 354.496 75.5396 354.496 51.527 396.495 51.527ZM372.496 45.5239 334.496 45.5239 334.496 21.5113 372.496 21.5113Z" stroke="#FFFFFF" stroke-width="0.999463" stroke-linejoin="round" stroke-miterlimit="10" fill="#4472C4"/></g><g clip-path="url(#clip4)"><path d="M453.495 253.633 393.495 253.633 393.495 230.621 453.495 230.621ZM411.495 224.618 368.496 224.618 368.496 200.605 411.495 200.605ZM401.495 194.602 355.496 194.602 355.496 170.59 401.495 170.59ZM401.495 164.586 354.496 164.586 354.496 140.574 401.495 140.574ZM548.493 134.571 471.494 134.571 471.494 111.559 548.493 111.559ZM491.494 105.555 443.495 105.555 443.495 81.5428 491.494 81.5428ZM458.495 75.5396 396.495 75.5396 396.495 51.527 458.495 51.527ZM413.495 45.5239 372.496 45.5239 372.496 21.5113 413.495 21.5113Z" stroke="#FFFFFF" stroke-width="0.999463" stroke-linejoin="round" stroke-miterlimit="10" fill="#8FAADC"/></g><g clip-path="url(#clip5)"><path d="M638.992 254.133 453.995 254.133 453.995 230.121 638.992 230.121ZM571.993 224.118 410.995 224.118 410.995 200.105 571.993 200.105ZM547.994 194.102 400.995 194.102 400.995 171.09 547.994 171.09ZM546.994 165.087 401.995 165.087 401.995 141.074 546.994 141.074ZM811 135.071 547.994 135.071 547.994 111.058 811 111.058ZM725.991 105.055 490.994 105.055 490.994 81.0425 725.991 81.0425ZM645.992 76.0399 458.995 76.0399 458.995 52.0273 645.992 52.0273ZM577.993 46.0241 413.995 46.0241 413.995 22.0115 577.993 22.0115Z" fill="#FFFFFF" fill-opacity="0"/></g><g clip-path="url(#clip6)"><path d="M0 0 0.000104931 237" stroke="#D9D9D9" stroke-width="0.999463" stroke-linejoin="round" stroke-miterlimit="10" fill="none" fill-rule="evenodd" transform="matrix(1 0 0 -1.00054 208.5 256.638)"/></g><g clip-path="url(#clip7)"><path d="M204.5 256.638 208.5 256.638M204.5 227.619 208.5 227.619M204.5 197.604 208.5 197.604M204.5 167.588 208.5 167.588M204.5 137.572 208.5 137.572M204.5 108.557 208.5 108.557M204.5 78.5412 208.5 78.5412M204.5 48.5255 208.5 48.5255M204.5 19.5104 208.5 19.5104" stroke="#D9D9D9" stroke-width="0.999463" stroke-linejoin="round" stroke-miterlimit="10" fill="none"/></g><g clip-path="url(#clip8)"><text fill="#404040" font-family="Calibri,Calibri_MSFontService,sans-serif" font-style="italic" font-weight="400" font-size="12" transform="matrix(1 0 0 1.00054 461.879 246)">£19,890</text></g><g clip-path="url(#clip9)"><text fill="#404040" font-family="Calibri,Calibri_MSFontService,sans-serif" font-style="italic" font-weight="400" font-size="12" transform="matrix(1 0 0 1.00054 419.2 216)">£17,240</text></g><g clip-path="url(#clip10)"><text fill="#404040" font-family="Calibri,Calibri_MSFontService,sans-serif" font-style="italic" font-weight="400" font-size="12" transform="matrix(1 0 0 1.00054 409.065 186)">£15,810</text></g><g clip-path="url(#clip11)"><text fill="#404040" font-family="Calibri,Calibri_MSFontService,sans-serif" font-style="italic" font-weight="400" font-size="12" transform="matrix(1 0 0 1.00054 409.622 157)">£15,640</text></g><g clip-path="url(#clip12)"><text fill="#404040" font-family="Calibri,Calibri_MSFontService,sans-serif" font-style="italic" font-weight="400" font-size="12" transform="matrix(1 0 0 1.00054 556.256 127)">£28,240</text></g><g clip-path="url(#clip13)"><text fill="#404040" font-family="Calibri,Calibri_MSFontService,sans-serif" font-style="italic" font-weight="400" font-size="12" transform="matrix(1 0 0 1.00054 499.258 97)">£25,280</text></g><g clip-path="url(#clip14)"><text fill="#404040" font-family="Calibri,Calibri_MSFontService,sans-serif" font-style="italic" font-weight="400" font-size="12" transform="matrix(1 0 0 1.00054 466.528 67)">£20,200</text></g><g clip-path="url(#clip15)"><text fill="#404040" font-family="Calibri,Calibri_MSFontService,sans-serif" font-style="italic" font-weight="400" font-size="12" transform="matrix(1 0 0 1.00054 421.989 38)">£17,670</text></g><g clip-path="url(#clip16)"><text fill="#595959" font-family="Calibri,Calibri_MSFontService,sans-serif" font-weight="400" font-size="12" transform="matrix(1 0 0 1.00054 202.611 276)">£0</text></g><g clip-path="url(#clip17)"><text fill="#595959" font-family="Calibri,Calibri_MSFontService,sans-serif" font-weight="400" font-size="12" transform="matrix(1 0 0 1.00054 238.491 276)">£5,000</text></g><g clip-path="url(#clip18)"><text fill="#595959" font-family="Calibri,Calibri_MSFontService,sans-serif" font-weight="400" font-size="12" transform="matrix(1 0 0 1.00054 281.944 276)">£10,000</text></g><g clip-path="url(#clip19)"><text fill="#595959" font-family="Calibri,Calibri_MSFontService,sans-serif" font-weight="400" font-size="12" transform="matrix(1 0 0 1.00054 328.436 276)">£15,000</text></g><g clip-path="url(#clip20)"><text fill="#595959" font-family="Calibri,Calibri_MSFontService,sans-serif" font-weight="400" font-size="12" transform="matrix(1 0 0 1.00054 374.927 276)">£20,000</text></g><g clip-path="url(#clip21)"><text fill="#595959" font-family="Calibri,Calibri_MSFontService,sans-serif" font-weight="400" font-size="12" transform="matrix(1 0 0 1.00054 421.418 276)">£25,000</text></g><g clip-path="url(#clip22)"><text fill="#595959" font-family="Calibri,Calibri_MSFontService,sans-serif" font-weight="400" font-size="12" transform="matrix(1 0 0 1.00054 467.91 276)">£30,000</text></g><g clip-path="url(#clip23)"><text fill="#595959" font-family="Calibri,Calibri_MSFontService,sans-serif" font-weight="400" font-size="12" transform="matrix(1 0 0 1.00054 514.401 276)">£35,000</text></g><g clip-path="url(#clip24)"><text fill="#595959" font-family="Calibri,Calibri_MSFontService,sans-serif" font-weight="400" font-size="12" transform="matrix(1 0 0 1.00054 560.892 276)">£40,000</text></g><g clip-path="url(#clip25)"><text fill="#595959" font-family="Calibri,Calibri_MSFontService,sans-serif" font-weight="400" font-size="12" transform="matrix(1 0 0 1.00054 36.7271 245)">Level 5 - Education &amp; Training</text></g><g clip-path="url(#clip26)"><text fill="#595959" font-family="Calibri,Calibri_MSFontService,sans-serif" font-weight="400" font-size="12" transform="matrix(1 0 0 1.00054 36.7271 216)">Level 4 - Education &amp; Training</text></g><g clip-path="url(#clip27)"><text fill="#595959" font-family="Calibri,Calibri_MSFontService,sans-serif" font-weight="400" font-size="12" transform="matrix(1 0 0 1.00054 18.9897 186)">Full level 3 - Education &amp; Training</text></g><g clip-path="url(#clip28)"><text fill="#595959" font-family="Calibri,Calibri_MSFontService,sans-serif" font-weight="400" font-size="12" transform="matrix(1 0 0 1.00054 18.9897 156)">Full level 2 - Education &amp; Training</text></g><g clip-path="url(#clip29)"><text fill="#595959" font-family="Calibri,Calibri_MSFontService,sans-serif" font-weight="400" font-size="12" transform="matrix(1 0 0 1.00054 22.7681 126)">Higher (Level 5+) Apprenticeship</text></g><g clip-path="url(#clip30)"><text fill="#595959" font-family="Calibri,Calibri_MSFontService,sans-serif" font-weight="400" font-size="12" transform="matrix(1 0 0 1.00054 28.7383 96)">Higher (Level 4) Apprenticeship</text></g><g clip-path="url(#clip31)"><text fill="#595959" font-family="Calibri,Calibri_MSFontService,sans-serif" font-weight="400" font-size="12" transform="matrix(1 0 0 1.00054 56.9368 67)">Advanced Apprenticeship</text></g><g clip-path="url(#clip32)"><text fill="#595959" font-family="Calibri,Calibri_MSFontService,sans-serif" font-weight="400" font-size="12" transform="matrix(1 0 0 1.00054 41.1519 37)">Intermediate Apprenticeship</text></g><rect x="171" y="4.0021" width="55" height="257.138" fill="#FFFFFF" fill-opacity="0"/><g clip-path="url(#clip33)"><path d="M194 244.131C194 243.578 194.448 243.13 195 243.13 195.552 243.13 196 243.578 196 244.131 196 244.684 195.552 245.132 195 245.132 194.448 245.132 194 244.684 194 244.131Z" fill="#4472C4" fill-rule="evenodd" fill-opacity="0.74902"/></g><g clip-path="url(#clip34)"><path d="M194 213.615C194 212.786 194.672 212.114 195.5 212.114 196.328 212.114 197 212.786 197 213.615 197 214.443 196.328 215.115 195.5 215.115 194.672 215.115 194 214.443 194 213.615Z" fill="#4472C4" fill-rule="evenodd" fill-opacity="0.74902"/></g><g clip-path="url(#clip35)"><path d="M193 184.099C193 182.994 193.895 182.098 195 182.098 196.105 182.098 197 182.994 197 184.099 197 185.204 196.105 186.1 195 186.1 193.895 186.1 193 185.204 193 184.099Z" fill="#4472C4" fill-rule="evenodd" fill-opacity="0.74902"/></g><g clip-path="url(#clip36)"><path d="M193 153.582C193 152.201 193.895 151.081 195 151.081 196.105 151.081 197 152.201 197 153.582 197 154.964 196.105 156.084 195 156.084 193.895 156.084 193 154.964 193 153.582Z" fill="#4472C4" fill-rule="evenodd" fill-opacity="0.74902"/></g><g clip-path="url(#clip37)"><path d="M192 123.566C192 122.185 193.343 121.065 195 121.065 196.657 121.065 198 122.185 198 123.566 198 124.948 196.657 126.068 195 126.068 193.343 126.068 192 124.948 192 123.566Z" fill="#4472C4" fill-rule="evenodd" fill-opacity="0.74902"/></g><g clip-path="url(#clip38)"><path d="M193 93.5502C193 92.1687 194.119 91.0488 195.5 91.0488 196.881 91.0488 198 92.1687 198 93.5502 198 94.9316 196.881 96.0516 195.5 96.0516 194.119 96.0516 193 94.9316 193 93.5502Z" fill="#4472C4" fill-rule="evenodd" fill-opacity="0.74902"/></g><g clip-path="url(#clip39)"><path d="M186 63.5341C186 58.2845 190.253 54.029 195.5 54.029 200.747 54.029 205 58.2845 205 63.5341 205 68.7836 200.747 73.0392 195.5 73.0392 190.253 73.0392 186 68.7836 186 63.5341Z" fill="#4472C4" fill-rule="evenodd" fill-opacity="0.74902"/></g><g clip-path="url(#clip40)"><path d="M185 33.518C185 28.2685 189.477 24.0129 195 24.0129 200.523 24.0129 205 28.2685 205 33.518 205 38.7675 200.523 43.0231 195 43.0231 189.477 43.0231 185 38.7675 185 33.518Z" fill="#4472C4" fill-rule="evenodd" fill-opacity="0.74902"/></g></g></svg>